<?xml version="1.0" encoding="UTF-8" standalone="no"?>
<!-- Created with Inkscape (http://www.inkscape.org/) -->

<svg
   xmlns:dc="http://purl.org/dc/elements/1.1/"
   xmlns:cc="http://creativecommons.org/ns#"
   xmlns:rdf="http://www.w3.org/1999/02/22-rdf-syntax-ns#"
   xmlns:svg="http://www.w3.org/2000/svg"
   xmlns="http://www.w3.org/2000/svg"
   xmlns:sodipodi="http://sodipodi.sourceforge.net/DTD/sodipodi-0.dtd"
   xmlns:inkscape="http://www.inkscape.org/namespaces/inkscape"
   width="377.95276"
   height="151.18111"
   viewBox="0 0 100 40"
   version="1.1"
   id="svg8"
   inkscape:version="0.92.4 (5da689c313, 2019-01-14)"
   sodipodi:docname="pilatus_mountain.svg">
  <defs
     id="defs2" />
  <sodipodi:namedview
     id="base"
     pagecolor="#ffffff"
     bordercolor="#666666"
     borderopacity="1.0"
     inkscape:pageopacity="0.0"
     inkscape:pageshadow="2"
     inkscape:zoom="1.979899"
     inkscape:cx="227.30386"
     inkscape:cy="45.92536"
     inkscape:document-units="mm"
     inkscape:current-layer="layer1"
     showgrid="false"
     inkscape:window-width="1920"
     inkscape:window-height="1137"
     inkscape:window-x="1912"
     inkscape:window-y="-8"
     inkscape:window-maximized="1"
     units="px" />
  <metadata
     id="metadata5">
    <rdf:RDF>
      <cc:Work
         rdf:about="">
        <dc:format>image/svg+xml</dc:format>
        <dc:type
           rdf:resource="http://purl.org/dc/dcmitype/StillImage" />
        <dc:title></dc:title>
      </cc:Work>
    </rdf:RDF>
  </metadata>
  <g
     inkscape:label="Layer 1"
     inkscape:groupmode="layer"
     id="layer1"
     transform="translate(0,-257)">
    <g
       id="g3875"
       transform="matrix(0.04843392,0,0,-0.04815888,-44.946198,309.2447)"
       style="fill:#000000;stroke:none">
      <path
         id="path3715"
         d="m 1893,1019 c 3,-9 1,-22 -4,-30 -7,-11 -9,-9 -9,9 0,29 -4,28 -45,-10 -21,-18 -35,-41 -35,-55 0,-38 26,-26 39,19 13,42 13,42 30,22 9,-11 22,-19 29,-16 8,2 12,-3 10,-14 -2,-11 4,-20 15,-22 16,-3 17,-1 5,17 -18,29 3,51 32,33 14,-8 20,-9 20,-1 0,9 -40,26 -48,20 -2,-1 -12,8 -23,21 -13,14 -19,17 -16,7 z"
         inkscape:connector-curvature="0" />
      <path
         id="path3717"
         d="m 2001,990 c -11,-6 -12,-12 -3,-22 6,-7 14,-37 18,-66 3,-28 10,-52 15,-52 5,0 9,-6 9,-14 0,-21 30,-74 31,-56 6,54 17,76 39,76 15,0 18,-5 14,-18 -3,-10 -1,-18 5,-18 6,0 8,-7 5,-15 -5,-13 -2,-14 22,-4 36,13 35,13 44,-1 4,-7 13,-9 20,-5 9,6 6,11 -11,21 -13,7 -27,10 -31,8 -4,-3 -15,7 -24,21 -9,14 -30,33 -45,41 -16,8 -29,21 -29,28 0,7 -7,19 -15,26 -12,10 -15,9 -16,-6 0,-11 -5,-3 -11,16 -12,44 -19,52 -37,40 z m 72,-132 c -5,-40 -17,-50 -26,-20 -2,9 -8,25 -12,35 -5,12 -2,17 9,17 9,0 16,5 16,12 0,7 3,8 9,3 4,-6 6,-27 4,-47 z"
         inkscape:connector-curvature="0" />
      <path
         id="path3721"
         d="m 1613,928 c -18,-5 -35,-13 -39,-20 -5,-7 1,-9 17,-5 13,3 40,10 59,14 28,7 31,10 15,14 -11,3 -34,2 -52,-3 z"
         inkscape:connector-curvature="0" />
      <path
         id="path3725"
         d="m 1767,912 c 17,-10 3,-29 -31,-42 -16,-6 -26,-13 -23,-16 9,-9 74,15 89,33 7,9 8,14 2,10 -7,-4 -14,0 -18,8 -3,8 -11,15 -18,15 -10,0 -10,-2 -1,-8 z"
         inkscape:connector-curvature="0" />
      <path
         id="path3727"
         d="m 1956,909 c 4,-7 0,-9 -14,-5 -18,6 -20,4 -13,-20 4,-15 13,-30 20,-32 10,-3 11,0 5,9 -7,12 -5,12 9,0 10,-8 17,-9 17,-3 0,6 -7,15 -16,20 -11,6 -13,11 -5,16 14,9 14,26 0,26 -5,0 -7,-5 -3,-11 z"
         inkscape:connector-curvature="0" />
      <path
         id="path3733"
         d="m 1678,880 c -7,-11 -19,-20 -26,-20 -7,0 -11,4 -8,9 3,5 -4,11 -17,15 -39,10 -77,6 -83,-9 -4,-8 -10,-15 -15,-15 -5,0 -32,-15 -61,-34 -29,-18 -90,-52 -136,-74 -95,-46 -178,-106 -185,-133 -6,-21 8,-35 18,-20 3,6 12,8 19,5 8,-3 17,0 21,5 3,6 21,18 38,26 61,29 79,43 66,47 -8,3 -28,-4 -45,-14 -25,-15 -31,-15 -31,-3 0,8 4,12 8,10 4,-3 10,2 13,11 4,9 13,14 21,10 8,-3 15,0 15,7 0,8 3,9 8,1 17,-25 81,-26 65,-1 -4,6 0,8 11,4 23,-9 95,21 77,32 -9,6 -7,10 8,14 12,3 19,1 15,-4 -15,-25 57,20 113,71 12,11 27,20 34,20 23,0 76,31 76,45 0,20 -4,19 -19,-5 z m -109,-37 c -28,-37 -64,-72 -74,-73 -5,0 -3,5 5,10 8,5 11,10 7,10 -14,0 20,42 45,55 31,18 32,18 17,-2 z m -94,-63 c -3,-5 -15,-10 -26,-10 -10,0 -19,-4 -19,-9 0,-5 -7,-11 -15,-15 -30,-11 -14,15 18,29 39,17 50,18 42,5 z m -88,-34 c -5,-14 -66,-50 -74,-43 -7,8 47,54 64,54 7,0 12,-5 10,-11 z"
         inkscape:connector-curvature="0" />
      <path
         id="path3737"
         d="m 1767,853 c -3,-4 -16,-29 -30,-55 -22,-41 -23,-47 -9,-53 9,-3 13,-3 10,1 -4,4 2,18 12,32 11,13 20,31 20,38 0,9 6,11 18,7 15,-6 16,-5 2,13 -8,10 -15,20 -16,22 -1,2 -4,0 -7,-5 z"
         inkscape:connector-curvature="0" />
      <path
         id="path3739"
         d="m 1863,839 c -34,-21 -43,-39 -20,-39 6,0 21,7 31,15 11,8 28,15 38,15 10,0 18,5 18,11 0,6 -6,9 -14,6 -8,-3 -16,-2 -18,3 -2,5 -18,0 -35,-11 z"
         inkscape:connector-curvature="0" />
      <path
         id="path3741"
         d="m 2000,848 c 0,-9 -7,-19 -16,-22 -21,-8 -11,-19 21,-23 29,-4 32,12 10,41 -12,16 -15,17 -15,4 z"
         inkscape:connector-curvature="0" />
      <path
         id="path3743"
         d="m 2364,822 c -4,-11 -13,-23 -21,-27 -14,-5 -14,-3 -2,12 12,17 12,17 -7,0 -16,-15 -17,-19 -4,-27 22,-14 40,-12 40,5 0,8 5,15 11,15 5,0 7,-4 4,-10 -3,-5 3,-10 15,-10 11,0 23,-6 26,-14 3,-8 16,-17 29,-20 14,-4 29,-15 35,-26 6,-11 17,-20 25,-20 8,0 16,-13 19,-32 7,-45 4,-68 -6,-62 -5,4 -7,8 -4,11 3,3 1,15 -5,25 -16,30 -32,7 -17,-24 14,-30 52,-42 69,-22 13,16 -27,114 -47,114 -7,0 -18,9 -24,20 -6,11 -16,20 -23,20 -7,0 -34,21 -60,47 -44,42 -48,45 -53,25 z"
         inkscape:connector-curvature="0" />
      <path
         id="path3745"
         d="m 1890,789 c -9,-15 -8,-24 2,-37 11,-15 11,-15 -2,-5 -10,8 -21,9 -30,3 -13,-8 -12,-10 2,-10 9,0 22,-2 30,-5 22,-8 40,10 42,44 2,24 -2,31 -16,31 -9,0 -22,-9 -28,-21 z"
         inkscape:connector-curvature="0" />
      <path
         id="path3747"
         d="m 2267,792 c -16,-18 -16,-19 1,-17 24,1 42,14 42,28 0,8 -3,7 -9,-2 -6,-10 -10,-10 -13,-1 -2,7 -9,5 -21,-8 z"
         inkscape:connector-curvature="0" />
      <path
         id="path3749"
         d="m 1790,786 c 19,-12 21,-15 8,-16 -12,0 -18,-8 -18,-22 0,-17 3,-19 9,-9 5,7 14,10 20,7 6,-4 11,0 11,9 0,11 7,14 28,10 15,-3 20,-2 12,1 -8,4 -18,11 -21,16 -3,5 -21,11 -40,14 l -34,4 z"
         inkscape:connector-curvature="0" />
      <path
         id="path3751"
         d="m 2005,780 c 3,-6 -4,-10 -17,-11 -22,0 -22,-1 -3,-8 11,-5 26,-6 33,-4 17,7 15,33 -4,33 -8,0 -12,-4 -9,-10 z"
         inkscape:connector-curvature="0" />
      <path
         id="path3753"
         d="m 2381,751 c -8,-5 -16,-20 -18,-33 -3,-22 -2,-22 12,-4 8,11 15,24 15,29 0,5 7,4 15,-3 13,-11 14,-10 9,4 -7,18 -13,19 -33,7 z"
         inkscape:connector-curvature="0" />
      <path
         id="path3755"
         d="m 1545,740 c -3,-5 -17,-10 -29,-10 -13,0 -30,-7 -37,-17 -13,-15 -12,-15 8,-2 21,13 25,12 45,-11 13,-14 24,-32 26,-40 5,-21 16,-31 38,-34 13,-2 18,-11 18,-32 -1,-17 -6,-28 -13,-26 -7,1 -5,-8 6,-22 10,-14 22,-26 27,-26 5,0 3,6 -3,13 -6,8 -7,17 -3,21 12,13 8,76 -5,76 -14,0 -18,22 -6,33 11,12 33,-14 33,-39 0,-26 10,-30 28,-12 14,14 16,32 3,24 -8,-6 -37,21 -42,39 -4,12 -28,8 -47,-7 -10,-9 -10,-14 0,-27 11,-14 11,-14 -4,-3 -9,8 -14,20 -12,27 3,7 0,24 -7,37 -11,21 -11,22 4,9 11,-8 27,-11 44,-6 21,5 24,8 12,16 -7,5 -9,9 -4,10 17,1 -29,18 -52,18 -12,1 -25,-3 -28,-9 z"
         inkscape:connector-curvature="0" />
      <path
         id="path3757"
         d="m 1651,718 c -1,-10 3,-18 8,-18 5,0 11,-9 14,-21 5,-17 9,-19 25,-10 16,8 21,7 26,-5 3,-8 10,-13 16,-9 6,4 5,13 -3,25 -14,24 -21,25 -41,4 -15,-14 -16,-13 -16,11 0,14 -4,24 -9,21 -5,-4 -12,0 -14,6 -3,8 -6,6 -6,-4 z"
         inkscape:connector-curvature="0" />
      <path
         id="path3759"
         d="m 1780,691 c 0,-23 -7,-34 -30,-48 -17,-10 -28,-23 -26,-30 3,-7 1,-13 -3,-13 -5,0 -11,4 -13,10 -1,5 -16,-6 -31,-25 -15,-19 -23,-35 -17,-35 5,0 10,4 10,10 0,5 6,7 13,4 8,-3 20,2 27,11 7,8 17,15 23,15 6,0 2,-7 -9,-15 -16,-14 -14,-14 14,0 18,9 36,24 39,33 4,9 13,22 20,27 12,10 13,39 1,51 -4,3 -4,12 -1,20 3,8 0,14 -6,14 -6,0 -11,-13 -11,-29 z"
         inkscape:connector-curvature="0" />
      <path
         id="path3761"
         d="m 2389,710 c -1,-5 -2,-14 -3,-19 -2,-15 -16,-26 -16,-13 0,7 -7,12 -16,12 -12,0 -15,-6 -11,-22 4,-12 1,-28 -5,-35 -15,-19 -2,-29 17,-13 12,10 15,10 15,-1 0,-11 2,-11 10,1 14,22 12,43 -2,34 -7,-4 -4,2 6,14 11,12 16,22 11,22 -4,0 -2,7 5,15 9,10 9,15 1,15 -6,0 -12,-4 -12,-10 z"
         inkscape:connector-curvature="0" />
      <path
         id="path3763"
         d="m 1498,689 c -23,-24 -50,-26 -41,-1 7,16 6,16 -11,-1 -10,-10 -26,-15 -39,-12 -16,4 -32,-4 -55,-26 -18,-17 -31,-33 -28,-36 3,-3 13,2 22,12 17,17 18,17 25,-1 5,-16 0,-19 -35,-22 -31,-2 -53,-14 -90,-44 -35,-30 -50,-37 -56,-28 -6,10 -18,9 -56,-6 -27,-10 -53,-24 -57,-31 -4,-7 -14,-13 -22,-13 -7,0 -27,-12 -44,-26 -17,-14 -35,-23 -41,-19 -5,3 -19,0 -31,-8 -42,-30 53,-12 115,22 32,17 64,31 72,31 8,0 14,4 14,10 0,5 16,9 35,8 19,-1 40,4 48,10 8,7 17,9 20,5 4,-3 9,2 13,11 3,9 11,16 16,16 5,0 22,8 36,19 15,10 39,21 55,25 15,3 27,13 27,21 0,14 29,35 49,35 6,0 11,-7 11,-16 0,-14 2,-14 15,0 8,8 15,19 15,25 0,17 24,8 37,-14 7,-11 12,-16 13,-11 0,6 14,-3 30,-19 17,-16 30,-24 30,-17 0,6 -11,19 -25,28 -14,9 -25,23 -25,30 0,8 -7,17 -15,20 -10,4 -13,13 -10,25 8,23 5,23 -17,-2 z"
         inkscape:connector-curvature="0" />
      <path
         id="path3765"
         d="m 1918,704 c -4,-3 -22,-10 -40,-14 -33,-8 -33,-8 10,-9 23,-1 42,-5 42,-11 0,-5 5,-10 10,-10 14,0 13,13 -3,34 -7,9 -16,14 -19,10 z"
         inkscape:connector-curvature="0" />
      <path
         id="path3767"
         d="m 2049,687 c 6,-8 8,-16 5,-20 -3,-3 -3,-15 1,-27 4,-12 9,-19 12,-16 4,3 12,1 20,-5 10,-9 13,-8 13,1 0,19 -40,80 -52,80 -7,0 -7,-5 1,-13 z"
         inkscape:connector-curvature="0" />
      <path
         id="path3769"
         d="m 2421,677 c 0,-12 4,-31 8,-41 7,-18 9,-17 23,10 14,29 13,31 -9,41 -20,10 -23,9 -22,-10 z"
         inkscape:connector-curvature="0" />
      <path
         id="path3771"
         d="m 1957,641 c -9,-22 -32,-54 -52,-72 -19,-18 -35,-37 -35,-43 0,-5 6,-2 13,9 8,10 19,15 24,12 14,-9 63,63 64,94 1,22 2,21 9,-6 7,-28 8,-28 9,-5 2,48 -15,54 -32,11 z"
         inkscape:connector-curvature="0" />
      <path
         id="path3779"
         d="m 2010,630 c 0,-21 2,-25 12,-22 5,1 7,-1 4,-6 -9,-15 10,-31 32,-25 l 22,5 -21,29 c -20,28 -49,39 -49,19 z"
         inkscape:connector-curvature="0" />
      <path
         id="path3781"
         d="m 1238,619 c -14,-6 -29,-17 -32,-25 -8,-21 5,-17 39,11 33,27 32,28 -7,14 z"
         inkscape:connector-curvature="0" />
      <path
         id="path3783"
         d="m 1870,622 c 0,-5 -16,-8 -35,-6 -19,1 -35,-1 -35,-7 0,-9 21,-13 48,-10 14,2 15,-8 2,-29 -5,-8 -10,-10 -10,-4 0,13 -28,11 -57,-4 -12,-7 -26,-12 -30,-11 -22,4 -30,-3 -30,-26 0,-25 0,-25 24,-9 14,8 33,14 43,11 17,-4 50,15 92,56 10,10 23,15 27,12 5,-2 11,2 14,10 4,9 1,12 -9,8 -8,-3 -21,0 -29,7 -9,7 -15,8 -15,2 z"
         inkscape:connector-curvature="0" />
      <path
         id="path3787"
         d="m 2386,613 c -4,-5 -11,-8 -15,-8 -4,0 -16,-8 -26,-19 -15,-15 -20,-16 -24,-5 -2,8 -9,17 -14,21 -13,8 -39,-1 -32,-12 3,-5 2,-16 -1,-25 -5,-13 -8,-14 -15,-3 -7,10 -9,9 -9,-4 0,-13 -6,-17 -22,-14 -13,3 -31,5 -41,5 -10,1 -15,6 -12,11 6,10 -30,9 -40,-2 -9,-8 52,-31 64,-23 6,3 11,-1 11,-9 0,-9 -6,-16 -14,-16 -21,0 -41,-29 -29,-41 13,-13 93,7 93,23 0,5 -9,8 -20,5 -13,-3 -20,0 -20,10 0,8 5,11 12,7 6,-4 17,1 25,11 12,17 13,18 13,1 0,-9 5,-14 10,-11 6,4 9,14 8,22 -2,9 3,18 10,20 6,3 12,0 12,-6 0,-6 7,-11 16,-11 8,0 12,5 9,10 -3,6 1,10 9,10 9,0 16,6 16,13 0,8 7,14 15,14 8,0 15,-3 15,-7 0,-13 -25,-60 -33,-60 -5,0 -5,-4 -2,-10 12,-20 -7,-32 -21,-13 -12,16 -13,15 -14,-14 0,-37 -1,-37 34,-23 25,9 31,4 27,-22 0,-4 8,-10 19,-13 11,-4 20,-10 20,-14 0,-7 43,-31 55,-31 2,0 2,7 -1,15 -4,8 -13,15 -21,15 -10,0 -13,7 -8,23 4,16 4,18 -3,8 -8,-11 -12,-10 -21,8 -8,15 -9,21 -1,21 7,0 9,8 5,19 -4,13 1,27 13,39 13,13 18,28 14,50 -5,37 -17,42 -20,9 -1,-13 -8,-36 -16,-52 -8,-15 -12,-33 -9,-41 3,-9 -2,-11 -16,-7 -12,3 -21,10 -21,15 0,5 5,6 12,2 8,-5 9,-2 5,11 -4,9 -3,23 2,29 11,14 20,76 11,76 -4,0 -10,-3 -14,-7 z"
         inkscape:connector-curvature="0" />
      <path
         id="path3789"
         d="m 2480,581 c 0,-6 7,-14 15,-17 8,-4 15,-12 15,-20 0,-8 5,-14 11,-14 6,0 8,7 4,18 -5,13 -4,14 6,5 10,-10 9,-15 -1,-27 -7,-9 -9,-23 -6,-32 5,-14 4,-15 -9,-4 -8,7 -15,21 -15,31 0,11 -4,19 -9,19 -13,0 -7,-41 10,-67 16,-26 55,-32 46,-8 -4,8 -2,17 3,20 5,3 7,12 3,20 -3,9 1,16 8,17 8,0 19,2 26,2 7,1 18,9 25,19 13,17 15,17 41,-3 15,-12 25,-25 23,-29 -3,-4 16,-20 42,-36 26,-16 52,-36 59,-45 10,-13 14,-13 32,4 27,24 26,32 -1,41 -22,8 -22,8 4,12 15,2 36,-1 47,-6 11,-6 29,-11 40,-11 12,0 30,-5 40,-12 20,-12 51,-5 51,11 0,21 -42,31 -153,36 -108,4 -167,17 -167,36 0,8 -52,39 -65,39 -3,0 -3,-4 0,-10 3,-5 2,-10 -4,-10 -6,0 -8,-7 -5,-15 5,-13 2,-14 -22,-4 -16,5 -37,18 -46,26 -10,9 -18,13 -18,8 0,-4 -7,-2 -15,5 -11,9 -15,9 -15,1 z"
         inkscape:connector-curvature="0" />
      <path
         id="path3793"
         d="m 1501,553 c 13,-15 29,-32 34,-38 6,-6 17,-14 26,-17 12,-5 15,-14 11,-34 -3,-17 -1,-25 5,-21 11,7 24,67 14,64 -18,-4 -51,17 -51,31 0,11 -13,23 -31,29 l -32,12 z"
         inkscape:connector-curvature="0" />
      <path
         id="path3797"
         d="m 2090,539 c 0,-5 7,-23 15,-39 15,-30 29,-37 39,-22 8,13 -5,52 -15,46 -5,-3 -9,-1 -9,4 0,6 -7,12 -15,16 -8,3 -15,1 -15,-5 z"
         inkscape:connector-curvature="0" />
      <path
         id="path3801"
         d="m 1653,513 c 9,-45 26,-83 37,-83 14,0 13,5 -10,51 -12,22 -18,44 -15,49 3,6 1,10 -6,10 -7,0 -10,-10 -6,-27 z"
         inkscape:connector-curvature="0" />
      <path
         id="path3807"
         d="m 1480,506 c 0,-8 5,-18 10,-21 6,-4 8,-11 5,-16 -4,-5 -1,-9 4,-9 6,0 11,-8 11,-18 0,-10 7,-19 15,-19 11,0 13,6 9,21 -4,12 -11,23 -15,24 -5,2 -9,10 -9,18 0,9 -5,12 -12,8 -8,-5 -9,-2 -5,9 3,10 2,17 -3,17 -6,0 -10,-6 -10,-14 z"
         inkscape:connector-curvature="0" />
      <path
         id="path3809"
         d="m 1903,499 c 4,-16 2,-19 -11,-14 -9,4 -24,8 -32,10 -8,1 -9,0 -2,-2 15,-6 16,-34 1,-30 -6,1 -13,-3 -16,-10 -3,-7 3,-9 16,-6 12,3 21,12 21,21 0,11 8,8 30,-13 30,-29 55,-29 26,0 -9,9 -16,27 -16,41 0,13 -5,24 -11,24 -7,0 -9,-9 -6,-21 z"
         inkscape:connector-curvature="0" />
      <path
         id="path3811"
         d="m 2002,511 c -6,-3 0,-19 13,-38 12,-18 25,-30 28,-26 4,3 6,-9 4,-28 -2,-26 -7,-35 -24,-37 -19,-3 -39,-39 -28,-51 3,-2 5,0 5,6 0,6 12,8 28,5 23,-5 25,-3 14,10 -10,13 -10,17 2,21 7,3 18,1 24,-5 16,-16 24,9 10,32 -10,16 -10,22 -1,28 9,6 2,20 -26,49 -22,22 -44,38 -49,34 z"
         inkscape:connector-curvature="0" />
      <path
         id="path3813"
         d="m 1225,492 c -2,-2 3,-11 11,-19 8,-8 12,-19 9,-24 -4,-5 -2,-9 4,-9 5,0 13,5 16,10 3,6 2,10 -3,10 -6,0 -8,8 -5,18 3,12 -1,19 -11,19 -9,0 -18,-2 -21,-5 z"
         inkscape:connector-curvature="0" />
      <path
         id="path3815"
         d="m 1270,491 c 0,-16 19,-23 43,-15 21,7 21,7 2,15 -28,11 -45,11 -45,0 z"
         inkscape:connector-curvature="0" />
      <path
         id="path3819"
         d="m 1770,480 c 0,-10 33,-30 50,-30 8,0 7,4 -2,13 -18,18 -48,28 -48,17 z"
         inkscape:connector-curvature="0" />
      <path
         id="path3821"
         d="m 2450,482 c 1,-21 26,-50 38,-43 9,5 5,13 -13,29 -14,12 -25,19 -25,14 z"
         inkscape:connector-curvature="0" />
      <path
         id="path3823"
         d="m 2644,468 c 3,-13 5,-25 5,-28 1,-3 6,2 11,10 8,13 11,12 24,-5 13,-17 15,-18 16,-3 0,16 -35,48 -52,48 -4,0 -6,-10 -4,-22 z"
         inkscape:connector-curvature="0" />
      <path
         id="path3831"
         d="m 1304,432 c -4,-12 -10,-19 -15,-16 -5,3 -9,0 -9,-5 0,-17 40,-13 47,5 3,8 0,21 -6,27 -9,9 -13,6 -17,-11 z"
         inkscape:connector-curvature="0" />
      <path
         id="path3833"
         d="m 2903,443 c 17,-4 17,-5 1,-17 -12,-9 -14,-15 -6,-20 7,-4 12,-2 12,3 0,6 7,11 16,11 25,0 10,25 -17,27 -16,1 -18,0 -6,-4 z"
         inkscape:connector-curvature="0" />
      <path
         id="path3839"
         d="m 2190,399 c -15,-26 -9,-32 22,-20 20,8 24,6 25,-11 2,-25 9,-32 23,-23 8,5 8,11 -1,21 -10,12 -9,13 5,8 9,-3 16,-1 16,5 0,6 -5,11 -11,11 -5,0 -8,4 -4,9 3,5 0,13 -6,17 -8,4 -9,3 -5,-4 4,-7 1,-12 -8,-12 -9,0 -16,5 -16,10 0,18 -29,10 -40,-11 z"
         inkscape:connector-curvature="0" />
      <path
         id="path3841"
         d="m 1784,390 c 0,-10 4,-17 7,-14 4,2 10,0 14,-5 3,-6 12,-8 20,-4 8,3 15,0 15,-7 0,-6 -4,-9 -9,-6 -5,3 -15,-2 -22,-12 -13,-15 -12,-16 4,-3 13,10 17,10 17,1 0,-9 6,-8 24,3 23,15 75,11 107,-8 9,-6 11,-3 6,9 -4,10 -7,20 -7,22 0,2 -11,4 -25,4 -18,0 -23,4 -19,15 5,12 -2,15 -37,13 -24,-1 -55,1 -69,4 -20,5 -26,2 -26,-12 z"
         inkscape:connector-curvature="0" />
      <path
         id="path3843"
         d="m 2805,400 c -15,-6 -7,-9 29,-9 50,-1 58,7 15,14 -13,2 -33,0 -44,-5 z"
         inkscape:connector-curvature="0" />
    </g>
  </g>
</svg>
